<?xml version="1.0" encoding="utf-8"?>
<!-- Generator: Adobe Illustrator 22.1.0, SVG Export Plug-In . SVG Version: 6.00 Build 0)  -->
<svg version="1.1" id="Layer_1" xmlns="http://www.w3.org/2000/svg" xmlns:xlink="http://www.w3.org/1999/xlink" x="0px" y="0px"
	 viewBox="0 0 2070.4 920.1" style="enable-background:new 0 0 2070.4 920.1;" xml:space="preserve">
<style type="text/css">
	.st0{opacity:2.000000e-02;fill:none;stroke:#FFFFFF;stroke-width:3;enable-background:new    ;}
	.st1{opacity:5.000000e-02;fill:none;stroke:#FFFFFF;stroke-width:3;enable-background:new    ;}
	.st2{opacity:5.000000e-02;fill:#FFFFFF;enable-background:new    ;}
	.st3{opacity:2.000000e-02;fill:#FFFFFF;enable-background:new    ;}
	.st4{opacity:3.000000e-02;fill:#FFFFFF;enable-background:new    ;}
	.st5{opacity:5.000000e-02;}
	.st6{fill:none;stroke:#FFFFFF;stroke-width:2;}
	.st7{opacity:3.000000e-02;}
	.st8{fill:none;stroke:#FFFFFF;}
	.st9{opacity:6.000000e-02;fill:#FFFFFF;enable-background:new    ;}
</style>
<g transform="translate(-57)">
	<circle class="st0" cx="1642.8" cy="552.4" r="20.2"/>
	<circle class="st1" cx="1385.8" cy="782.4" r="4.2"/>
	<circle class="st1" cx="556.1" cy="626.7" r="4.2"/>
	<circle class="st2" cx="1709.8" cy="676.5" r="10.9"/>
	<circle class="st3" cx="275.7" cy="793.9" r="16.1"/>
	<polygon class="st4" points="2111.8,34.5 2113.8,35.7 1979.2,170.1 1977.2,168.9 	"/>
	<polygon class="st4" points="2078.2,91.6 2079.9,93.3 1991.3,181.8 1989.6,180 	"/>
	<polygon class="st4" points="2082.5,74 2084.5,75.3 1976,183.6 1974.1,182.3 	"/>
	<g transform="translate(1526 211)" class="st5">
		<circle class="st6" cx="201.9" cy="116.1" r="20.8"/>
		<circle class="st6" cx="201.9" cy="116.1" r="30.1"/>
		<circle class="st6" cx="202.5" cy="116.6" r="40"/>
		<circle class="st6" cx="203" cy="117.1" r="49.8"/>
		<circle class="st6" cx="203" cy="117.1" r="61.3"/>
		<circle class="st6" cx="203" cy="117.1" r="73.7"/>
	</g>
	<g transform="translate(627 765)" class="st7">
		<circle class="st8" cx="123.3" cy="93.2" r="8.3"/>
		<circle class="st8" cx="123.8" cy="93.8" r="11.9"/>
		<circle class="st8" cx="123.8" cy="93.8" r="16.1"/>
		<circle class="st8" cx="123.3" cy="93.2" r="19.7"/>
		<circle class="st8" cx="123.8" cy="93.8" r="24.4"/>
		<circle class="st8" cx="123.8" cy="93.8" r="29.6"/>
	</g>
	<polygon class="st4" points="1612.4,181 1621.4,225.5 1576.3,221.2 	"/>
	<polygon class="st9" points="1909.6,749.1 1888.4,802.6 1843.3,766.8 	"/>
	<polygon class="st3" points="173.1,571.4 70.6,559.6 111.6,464.9 	"/>
</g>
</svg>
